<?xml version="1.0" encoding="UTF-8"?>
<svg id="icon_png" data-name="icon png" xmlns="http://www.w3.org/2000/svg" viewBox="0 0 2000 2000">
  <defs>
    <style>
      .cls-1 {
        fill: #ff34ff;
      }
    </style>
  </defs>
  <path class="cls-1" d="M926.49,110.48c-111.63,24.48-191.56,132.33-191.56,256.74v182.15c111.81-68.37,221.27-98.45,328.33-89.69,135.95,11.13,192.7,78.59,328.33,89.69,45.01,3.68,90.55.51,136.6-9.57,111.7-24.45,191.73-132.3,191.73-256.78V100.87s-221.8,98.41-328.33,89.69c-135.63-11.1-192.38-78.56-328.33-89.69-45.16-3.7-90.76-.48-136.77,9.61Z"/>
  <path class="cls-1" d="M1004.99,1584.33c0,174-141.06,315.06-315.06,315.06-6.41,0-12.77-.19-19.09-.58-193.31-11.55-339.67-197.41-284.03-402.55,26.06-96.1,127.34-193.82,224.09-217.37,32.65-7.95,64.74-10.8,95.67-9.19,15.42.8,28.37-11.44,28.37-26.89v-50.51s0,0,0,0v-326.85c0-85.73,67.12-128.43,149.3-135.83.82-.07,1.65-.11,2.48-.11h838.41v178.84c0,100.04-84.29,181-184.33,181l-501.77.22c-18.8,0-34.04,15.25-34.04,34.06v416.05"/>
</svg>